<?xml version="1.0" encoding="UTF-8"?>
<svg xmlns="http://www.w3.org/2000/svg" xmlns:xlink="http://www.w3.org/1999/xlink" width="128px" height="128px" viewBox="0 0 128 128" version="1.1">
<g id="surface1">
<path style=" stroke:none;fill-rule:nonzero;fill:rgb(0%,0%,0%);fill-opacity:1;" d="M 61.066406 1.566406 C 59.535156 1.632812 57.449219 1.796875 56.960938 1.886719 C 56.757812 1.925781 56.703125 2.015625 56.574219 2.5 C 56.410156 3.105469 55.324219 7.734375 54.847656 9.804688 C 54.699219 10.484375 54.542969 11.070312 54.507812 11.105469 C 54.480469 11.132812 53.808594 11.289062 53.027344 11.453125 C 50.71875 11.914062 47.410156 12.847656 46.097656 13.40625 L 45.65625 13.589844 L 44.535156 12.453125 C 43.917969 11.832031 42.429688 10.308594 41.226562 9.070312 C 40.015625 7.835938 38.976562 6.789062 38.910156 6.753906 C 38.617188 6.578125 35.316406 8.164062 32.394531 9.878906 C 31.089844 10.648438 28.175781 12.535156 27.304688 13.175781 C 26.667969 13.636719 26.632812 13.691406 26.6875 13.949219 C 26.714844 14.101562 27.164062 15.613281 27.671875 17.308594 C 28.1875 19.003906 28.765625 20.921875 28.957031 21.570312 C 29.160156 22.222656 29.316406 22.828125 29.316406 22.910156 C 29.316406 23 29.078125 23.25 28.792969 23.46875 C 28.121094 23.964844 24.464844 27.566406 23.691406 28.480469 C 23.371094 28.855469 23.03125 29.261719 22.929688 29.378906 L 22.746094 29.589844 L 22.011719 29.359375 C 21.046875 29.058594 18.078125 28.113281 15.660156 27.34375 C 14.585938 27.003906 13.648438 26.757812 13.574219 26.785156 C 13.085938 26.96875 10.109375 31.441406 8.683594 34.136719 C 7.378906 36.589844 7.148438 37.050781 6.808594 37.828125 C 6.597656 38.296875 6.433594 38.753906 6.433594 38.855469 C 6.433594 38.957031 7.792969 40.355469 9.917969 42.4375 L 13.398438 45.847656 L 13.078125 46.726562 C 12.359375 48.679688 11.808594 50.730469 11.339844 53.148438 C 11.203125 53.882812 11.066406 54.507812 11.027344 54.550781 C 10.964844 54.625 7.535156 55.503906 4.179688 56.3125 C 2.96875 56.605469 1.902344 56.871094 1.820312 56.917969 C 1.738281 56.960938 1.644531 57.070312 1.617188 57.15625 C 1.488281 57.546875 1.277344 59.984375 1.183594 62.128906 C 1.09375 64.15625 1.09375 64.769531 1.230469 66.710938 C 1.414062 69.214844 1.515625 70.304688 1.597656 70.71875 C 1.664062 70.984375 1.71875 71.011719 2.648438 71.277344 C 3.1875 71.433594 4.640625 71.808594 5.882812 72.109375 C 8.519531 72.761719 10.429688 73.265625 10.78125 73.394531 C 10.917969 73.449219 11.046875 73.578125 11.066406 73.695312 C 11.09375 73.8125 11.195312 74.335938 11.304688 74.867188 C 11.707031 76.867188 12.527344 79.789062 13.140625 81.410156 L 13.453125 82.226562 L 12.515625 83.105469 C 12.003906 83.59375 10.414062 85.148438 8.96875 86.570312 L 6.359375 89.15625 L 6.597656 89.6875 C 8.296875 93.398438 10.6875 97.492188 12.800781 100.316406 C 13.28125 100.957031 13.492188 101.167969 13.648438 101.167969 C 13.765625 101.167969 14.539062 100.957031 15.367188 100.710938 C 17.625 100.003906 19.640625 99.390625 21.320312 98.886719 L 22.828125 98.429688 L 23.25 98.894531 C 24.730469 100.5625 26.605469 102.441406 28.074219 103.726562 C 28.378906 103.992188 28.800781 104.367188 29.011719 104.558594 L 29.398438 104.90625 L 29.234375 105.492188 C 29.140625 105.8125 28.757812 107.097656 28.371094 108.363281 C 27.074219 112.605469 26.652344 114.042969 26.652344 114.152344 C 26.652344 114.363281 30.078125 116.730469 32.304688 118.046875 C 34.664062 119.449219 36.089844 120.191406 38.269531 121.191406 L 38.800781 121.4375 L 39.214844 121.035156 C 40.1875 120.089844 42.285156 117.910156 44.378906 115.664062 C 45.050781 114.949219 45.65625 114.363281 45.722656 114.363281 C 45.785156 114.363281 46.492188 114.59375 47.292969 114.859375 C 49.746094 115.703125 52.464844 116.433594 54.101562 116.699219 C 54.46875 116.757812 54.496094 116.785156 54.625 117.234375 C 54.773438 117.753906 55.390625 120.3125 55.96875 122.796875 C 56.640625 125.679688 56.730469 126.046875 56.796875 126.121094 C 56.832031 126.15625 57.804688 126.277344 58.964844 126.386719 C 61.8125 126.644531 65.984375 126.644531 68.871094 126.386719 C 69.972656 126.285156 70.910156 126.167969 70.957031 126.121094 C 71.03125 126.046875 71.398438 124.574219 72.425781 120.183594 C 72.582031 119.523438 72.8125 118.542969 72.941406 117.992188 C 73.191406 116.949219 73.363281 116.65625 73.742188 116.65625 C 74 116.65625 76.039062 116.207031 77.289062 115.867188 C 78.347656 115.582031 79.769531 115.132812 81.011719 114.695312 C 82.078125 114.308594 82.195312 114.300781 82.378906 114.558594 C 82.453125 114.65625 82.792969 115.042969 83.144531 115.398438 C 83.484375 115.765625 84.492188 116.820312 85.375 117.753906 C 87.902344 120.429688 88.804688 121.328125 88.980469 121.328125 C 89.402344 121.328125 92.589844 119.734375 95.070312 118.277344 C 97.570312 116.8125 100.945312 114.527344 101.0625 114.21875 C 101.082031 114.152344 100.960938 113.632812 100.789062 113.0625 C 100.394531 111.808594 100.035156 110.597656 99.574219 109.003906 C 99.382812 108.34375 99.042969 107.207031 98.820312 106.464844 C 98.601562 105.714844 98.433594 105.035156 98.464844 104.945312 C 98.492188 104.851562 98.710938 104.613281 98.960938 104.421875 C 100.308594 103.292969 102.625 100.996094 104.445312 98.960938 C 104.648438 98.730469 104.859375 98.519531 104.921875 98.484375 C 104.988281 98.445312 105.730469 98.640625 106.578125 98.914062 C 107.421875 99.1875 108.683594 99.582031 109.363281 99.792969 C 110.042969 99.996094 111.3125 100.390625 112.164062 100.664062 C 114.445312 101.378906 114.179688 101.398438 114.847656 100.5 C 115.96875 99.003906 117.488281 96.660156 118.71875 94.523438 C 119.195312 93.691406 120.453125 91.171875 120.941406 90.070312 L 121.375 89.089844 L 119.34375 87.082031 C 118.230469 85.984375 116.640625 84.445312 115.8125 83.664062 C 114.804688 82.710938 114.324219 82.207031 114.363281 82.109375 C 114.390625 82.035156 114.675781 81.183594 115.003906 80.230469 C 115.675781 78.269531 115.953125 77.234375 116.394531 75.0625 C 116.566406 74.191406 116.742188 73.53125 116.816406 73.484375 C 117.0625 73.320312 118.5625 72.925781 123.320312 71.761719 C 124.757812 71.414062 125.960938 71.09375 126.003906 71.046875 C 126.191406 70.855469 126.53125 67.097656 126.585938 64.566406 C 126.621094 62.828125 126.539062 60.765625 126.363281 58.832031 C 126.226562 57.375 126.132812 57.015625 125.878906 56.90625 C 125.648438 56.816406 123.351562 56.230469 121.539062 55.808594 C 119.554688 55.347656 116.714844 54.5625 116.714844 54.480469 C 116.714844 54.324219 116.117188 51.472656 115.933594 50.777344 C 115.675781 49.785156 115.117188 47.964844 114.703125 46.78125 C 114.546875 46.339844 114.417969 45.929688 114.417969 45.863281 C 114.417969 45.792969 114.777344 45.398438 115.214844 44.976562 C 118.011719 42.308594 121.308594 38.992188 121.308594 38.84375 C 121.308594 38.296875 119.527344 34.867188 117.292969 31.109375 C 116.4375 29.664062 114.480469 26.894531 114.261719 26.8125 C 114.1875 26.777344 113.792969 26.859375 113.378906 26.976562 C 111.964844 27.398438 108.277344 28.546875 105.695312 29.378906 C 104.933594 29.617188 104.996094 29.636719 104.539062 29.039062 C 103.949219 28.28125 101.246094 25.53125 99.851562 24.265625 C 99.5 23.945312 99.03125 23.523438 98.8125 23.3125 L 98.398438 22.9375 L 98.785156 21.664062 C 99.003906 20.964844 99.355469 19.792969 99.574219 19.0625 C 99.785156 18.328125 100.191406 17.007812 100.449219 16.128906 C 101.210938 13.617188 101.183594 13.773438 100.804688 13.460938 C 100.125 12.882812 96.460938 10.511719 94.933594 9.648438 C 92.96875 8.539062 90.441406 7.257812 89.53125 6.910156 L 88.851562 6.652344 L 88.015625 7.523438 C 86.351562 9.226562 84.308594 11.335938 83.585938 12.085938 C 82.609375 13.105469 82.066406 13.570312 81.949219 13.5 C 81.894531 13.460938 81.332031 13.261719 80.6875 13.039062 C 78.785156 12.378906 76.570312 11.792969 74.394531 11.363281 C 73.84375 11.253906 73.355469 11.144531 73.320312 11.105469 C 73.246094 11.035156 72.628906 8.558594 71.730469 4.765625 C 71.390625 3.328125 71.078125 2.089844 71.03125 2.007812 C 70.976562 1.898438 70.671875 1.84375 69.597656 1.75 C 66.222656 1.476562 64.3125 1.4375 61.066406 1.566406 Z M 68.835938 17.539062 C 72.015625 17.914062 75.902344 18.777344 78.484375 19.683594 C 81.425781 20.71875 85.726562 22.816406 88.179688 24.421875 C 89.015625 24.972656 91.25 26.558594 91.761719 26.976562 C 96.957031 31.210938 100.523438 35.335938 103.5625 40.613281 C 105.390625 43.785156 106.402344 46.1875 107.664062 50.308594 C 109.527344 56.441406 109.867188 64.246094 108.582031 71.25 C 107.789062 75.492188 105.90625 80.550781 103.636719 84.492188 C 100.171875 90.5 94.816406 96.210938 89.050781 100.042969 C 83.785156 103.542969 78.003906 105.933594 72.097656 107.070312 C 68.878906 107.683594 66.222656 107.902344 62.953125 107.832031 C 57.402344 107.703125 52.109375 106.574219 46.960938 104.441406 C 45.253906 103.726562 43.183594 102.753906 42.367188 102.277344 C 42.035156 102.085938 41.320312 101.664062 40.757812 101.351562 C 37.769531 99.636719 34.445312 97.035156 31.660156 94.25 C 29.703125 92.289062 28.976562 91.464844 27.40625 89.375 C 23.515625 84.207031 21.246094 79.488281 19.621094 73.15625 C 19.242188 71.699219 18.902344 69.746094 18.648438 67.566406 C 18.351562 65.042969 18.335938 60.71875 18.609375 58.097656 C 19.042969 53.910156 19.839844 50.566406 21.421875 46.378906 C 22.773438 42.796875 24.921875 38.945312 27.367188 35.738281 C 29.078125 33.492188 31.851562 30.496094 33.636719 28.949219 C 35.398438 27.417969 35.757812 27.117188 36.621094 26.464844 C 37.476562 25.832031 37.769531 25.613281 38.949219 24.804688 C 39.1875 24.640625 40.003906 24.128906 40.757812 23.679688 C 46.363281 20.308594 52.082031 18.382812 58.953125 17.546875 C 61.5 17.238281 66.222656 17.238281 68.835938 17.539062 Z M 68.835938 17.539062 "/>
<path style=" stroke:none;fill-rule:nonzero;fill:rgb(0%,0%,0%);fill-opacity:1;" d="M 50.25 31.632812 C 49.882812 31.707031 49.304688 32.3125 48.992188 32.953125 C 48.660156 33.613281 45.308594 39.890625 43.699219 42.839844 C 40.546875 48.625 40.214844 49.21875 39.09375 51.363281 L 38.277344 52.921875 L 38.277344 56.722656 C 38.277344 60.398438 38.285156 60.535156 38.46875 60.847656 C 38.570312 61.023438 38.792969 61.261719 38.964844 61.371094 L 39.269531 61.582031 L 43.679688 61.582031 C 47.164062 61.582031 48.074219 61.609375 48.035156 61.691406 C 48.007812 61.753906 47.660156 62.660156 47.246094 63.699219 C 46.84375 64.742188 46.417969 65.785156 46.308594 66.035156 C 46.207031 66.28125 45.859375 67.160156 45.535156 67.996094 C 45.214844 68.828125 44.554688 70.480469 44.066406 71.660156 C 43.578125 72.84375 42.898438 74.511719 42.558594 75.371094 C 42.210938 76.222656 41.546875 77.855469 41.078125 78.992188 C 40.621094 80.128906 39.929688 81.796875 39.5625 82.703125 C 39.195312 83.609375 38.753906 84.636719 38.589844 84.996094 L 38.277344 85.636719 L 38.296875 89.109375 C 38.324219 92.964844 38.3125 92.921875 38.964844 93.359375 L 39.269531 93.5625 L 63.972656 93.542969 L 88.675781 93.515625 L 88.996094 93.203125 C 89.492188 92.71875 89.53125 92.40625 89.492188 88.796875 L 89.464844 85.636719 L 88.894531 84.351562 C 88.132812 82.621094 86.351562 78.296875 85.175781 75.328125 C 84.761719 74.289062 83.941406 72.273438 83.03125 70.058594 C 82.648438 69.105469 82.09375 67.71875 81.683594 66.667969 C 81.527344 66.261719 81.222656 65.503906 81 64.972656 C 80.78125 64.441406 80.414062 63.515625 80.175781 62.910156 C 79.945312 62.304688 79.734375 61.753906 79.707031 61.699219 C 79.667969 61.609375 80.660156 61.582031 84.164062 61.5625 L 88.675781 61.535156 L 88.960938 61.261719 C 89.503906 60.746094 89.511719 60.691406 89.511719 56.953125 C 89.511719 55.074219 89.476562 53.324219 89.417969 53.066406 C 89.347656 52.65625 88.253906 50.5 86.964844 48.203125 C 86.863281 48.027344 86.425781 47.203125 85.972656 46.367188 C 85.53125 45.535156 84.84375 44.28125 84.457031 43.574219 C 84.0625 42.867188 83.613281 42.042969 83.457031 41.742188 C 83.300781 41.4375 83.058594 41.007812 82.933594 40.777344 C 82.792969 40.550781 81.910156 38.917969 80.964844 37.160156 C 78.097656 31.824219 78.171875 31.945312 77.703125 31.679688 C 77.566406 31.597656 74.082031 31.570312 64.035156 31.570312 C 56.621094 31.570312 50.417969 31.597656 50.25 31.632812 Z M 74.273438 34.253906 L 76.359375 34.273438 L 76.628906 34.75 C 76.785156 35.015625 77.085938 35.582031 77.316406 36.015625 C 78.253906 37.808594 79.90625 40.863281 80.183594 41.328125 C 80.53125 41.925781 81.527344 43.757812 82.390625 45.40625 C 82.730469 46.058594 83.070312 46.679688 83.132812 46.78125 C 83.308594 47.066406 85.742188 51.59375 85.742188 51.636719 C 85.742188 51.664062 75.902344 51.683594 63.871094 51.683594 C 51.839844 51.683594 42 51.65625 42 51.609375 C 42 51.574219 42.238281 51.105469 42.53125 50.585938 C 42.824219 50.050781 43.761719 48.320312 44.609375 46.734375 C 45.464844 45.148438 46.585938 43.089844 47.097656 42.152344 C 48.074219 40.394531 49.011719 38.660156 50.472656 35.921875 L 51.328125 34.320312 L 53.625 34.273438 C 55.710938 34.226562 69.164062 34.21875 74.273438 34.253906 Z M 86.847656 56.625 L 86.847656 58.914062 L 78.742188 58.949219 C 71.683594 58.976562 70.5625 58.996094 70.15625 59.125 C 68.742188 59.554688 67.898438 60.417969 67.484375 61.828125 C 67.207031 62.800781 67.242188 69.773438 67.585938 78.808594 C 67.730469 82.585938 67.8125 83.628906 68.007812 84.140625 C 68.402344 85.203125 69.101562 85.929688 70.148438 86.359375 C 70.625 86.550781 70.691406 86.550781 78.742188 86.578125 L 86.847656 86.605469 L 86.828125 88.75 L 86.800781 90.90625 L 63.925781 90.90625 C 51.34375 90.90625 41.042969 90.894531 41.023438 90.886719 C 41.007812 90.859375 40.960938 87.039062 40.980469 86.753906 C 40.988281 86.605469 41.417969 86.597656 48.746094 86.597656 C 53.570312 86.597656 56.675781 86.5625 56.980469 86.507812 C 58.300781 86.257812 59.359375 85.378906 59.800781 84.179688 C 59.929688 83.8125 60.019531 82.519531 60.148438 79.449219 C 60.175781 78.671875 60.222656 77.820312 60.242188 77.570312 C 60.351562 76.324219 60.488281 68.574219 60.453125 65.75 C 60.40625 62.195312 60.359375 61.820312 59.789062 60.792969 C 59.40625 60.085938 58.613281 59.445312 57.804688 59.171875 C 57.207031 58.96875 57.199219 58.96875 49.128906 58.949219 C 44.683594 58.933594 41.042969 58.914062 41.023438 58.90625 C 41.007812 58.878906 40.960938 54.5625 40.980469 54.40625 C 40.988281 54.367188 51.308594 54.339844 63.917969 54.339844 L 86.847656 54.339844 Z M 51.574219 69.847656 C 51.511719 69.910156 51.464844 69.917969 51.464844 69.863281 C 51.464844 69.738281 51.574219 69.625 51.640625 69.691406 C 51.65625 69.71875 51.628906 69.792969 51.574219 69.847656 Z M 52.109375 70.101562 C 52.109375 70.148438 52.0625 70.195312 52.007812 70.195312 C 51.960938 70.195312 51.941406 70.148438 51.96875 70.101562 C 51.996094 70.046875 52.042969 70.011719 52.070312 70.011719 C 52.089844 70.011719 52.109375 70.046875 52.109375 70.101562 Z M 52.109375 70.101562 "/>
</g>
</svg>
